<svg width="59" height="59" viewBox="0 0 59 59" fill="none" xmlns="http://www.w3.org/2000/svg">
<path id="Star 6" d="M29.5 0L34.6521 5.2615L41.4987 2.55041L44.0653 9.45256L51.4228 9.76065L50.9601 17.11L57.5562 20.384L54.1442 26.9098L58.8384 32.5836L53.0672 37.1574L55.0477 44.25L47.9151 46.0811L46.8397 53.366L39.5789 52.1377L35.6334 58.3554L29.5 54.28L23.3666 58.3554L19.4211 52.1377L12.1603 53.366L11.0849 46.0811L3.95225 44.25L5.93282 37.1574L0.161604 32.5836L4.85575 26.9098L1.44383 20.384L8.03989 17.11L7.57723 9.76065L14.9347 9.45256L17.5013 2.55041L24.3479 5.2615L29.5 0Z" fill="#FECD08"/>
</svg>
